PathFileType  4	(X/Y/Z) C:\Users\antoi\Documents\MyRepositories\mobilecap\ResultsAnalysis
DataRate	CameraRate	NumFrames	NumMarkers	Units	OrigDataRate	OrigDataStartFrame	OrigNumFrames
100.0	100.0	4	51	mm	100.0	68	268
Frame#	Time	r_knee			r_shank_antsup			r_ankle			r_calc			r_5meta			r_toe			L_knee			L_shank_antsup			L_ankle			L_calc			L_5meta			L_toe			r_sh2			r_sh3			r_sh4			L_sh2			L_sh3			r_thigh1			r_thigh2			r_thigh3			r_thigh4			r_thigh5			L_thigh1			L_thigh2			L_thigh3			L_thigh4			r.ASIS			r.PSIS			L.ASIS			L.PSIS			C7			R_Shoulder			L_Shoulder			R_Sternum			L_Sternum			R_humerus			R_elbow_med			R_elbow_lat			R_forearm			R_wrist_radius			R_wrist_ulna			L_humerus			L_elbow_med			L_elbow_lat			L_forearm			L_wrist_radius			L_wrist_ulna			R_HJC			L_HJC			R_HJC_reg			L_HJC_reg			
		X1	Y1	Z1	X2	Y2	Z2	X3	Y3	Z3	X4	Y4	Z4	X5	Y5	Z5	X6	Y6	Z6	X7	Y7	Z7	X8	Y8	Z8	X9	Y9	Z9	X10	Y10	Z10	X11	Y11	Z11	X12	Y12	Z12	X13	Y13	Z13	X14	Y14	Z14	X15	Y15	Z15	X16	Y16	Z16	X17	Y17	Z17	X18	Y18	Z18	X19	Y19	Z19	X20	Y20	Z20	X21	Y21	Z21	X22	Y22	Z22	X23	Y23	Z23	X24	Y24	Z24	X25	Y25	Z25	X26	Y26	Z26	X27	Y27	Z27	X28	Y28	Z28	X29	Y29	Z29	X30	Y30	Z30	X31	Y31	Z31	X32	Y32	Z32	X33	Y33	Z33	X34	Y34	Z34	X35	Y35	Z35	X36	Y36	Z36	X37	Y37	Z37	X38	Y38	Z38	X39	Y39	Z39	X40	Y40	Z40	X41	Y41	Z41	X42	Y42	Z42	X43	Y43	Z43	X44	Y44	Z44	X45	Y45	Z45	X46	Y46	Z46	X47	Y47	Z47	X48	Y48	Z48	X49	Y49	Z49	X50	Y50	Z50	X51	Y51	Z51	

68	0.67000000	-1020.29342	772.95483	-470.25167	-1016.80666	688.45130	-455.68124	-1242.70698	407.10346	-478.19331	-1309.97011	355.86213	-526.08189	-1111.82418	347.00192	-432.24337	-1075.24264	370.06571	-491.88384	-1007.52880	775.48483	-734.15185	-1023.79889	662.50550	-755.01483	-1238.99268	413.08858	-748.84985	-1314.57865	365.54047	-715.36665	-1097.95670	343.35227	-793.61926	-1072.08066	366.76207	-729.41409	-1076.58763	592.04259	-454.08858	-1079.25234	727.08447	-435.98841	-1147.55432	634.47308	-435.14168	-1094.05083	717.32078	-768.33364	-1156.70332	613.47780	-772.95369	-1096.24721	1070.69443	-399.92940	-1036.74699	982.69157	-424.08776	-1070.78382	930.07730	-399.30951	-1190.91331	1007.66596	-403.18598	-1120.13488	912.77082	-419.19365	-1092.55991	1084.91093	-747.61656	-1013.95658	969.89817	-743.86788	-1191.97585	1017.15717	-749.18929	-1105.48200	908.65945	-759.00846	-1118.37886	1204.00445	-434.60835	-1282.10909	1310.77663	-516.14212	-1114.70700	1197.37083	-693.55684	-1281.44647	1303.94758	-622.53191	-981.06419	1733.33580	-564.17283	-957.33005	1660.56540	-388.20696	-914.08095	1655.07782	-711.88850	-892.84493	1593.39553	-517.57789	-886.69302	1587.28733	-568.48795	-1053.40222	1439.46744	-256.10266	-1111.74663	1337.58465	-309.11454	-1093.99493	1359.33724	-224.40176	-998.24748	1226.03286	-209.84937	-937.34828	1128.04946	-220.43170	-968.23050	1122.94453	-188.62990	-973.34439	1426.10548	-838.13657	-1050.00023	1329.65681	-802.31567	-1012.41120	1341.98280	-864.81484	-925.81493	1185.48684	-865.53245	-871.43528	1104.70610	-844.54160	-901.60573	1088.71757	-866.78712	-1225.21286	1161.53560	-441.57488	-1220.06906	1154.05634	-671.76363	-1214.20291	1165.56665	-469.45364	-1213.14166	1154.61492	-640.07817	
69	0.68000000	-1017.22014	771.33546	-470.02908	-1014.23243	686.77169	-455.61889	-1242.58257	406.99874	-478.02129	-1309.97245	356.09148	-525.80430	-1111.81926	346.71562	-432.11652	-1075.22297	369.65260	-491.78908	-1002.96165	774.67340	-734.24273	-1020.32174	661.89997	-755.15909	-1238.09053	414.77548	-748.62985	-1314.19488	367.72040	-714.75321	-1097.84524	343.25026	-793.59940	-1071.80718	366.44619	-729.28183	-1074.72088	590.72222	-453.90609	-1076.30691	725.77813	-435.86210	-1145.22102	633.41953	-434.72042	-1090.12634	717.37830	-768.16426	-1153.61498	614.60423	-772.74122	-1091.73809	1069.18773	-398.97417	-1032.08203	981.46077	-423.24596	-1066.59089	927.94427	-399.64087	-1186.57931	1006.55366	-402.62956	-1116.47243	911.77924	-418.41771	-1087.02175	1084.42857	-746.73857	-1008.79005	969.60968	-743.10376	-1186.72951	1016.90128	-748.79581	-1100.19115	908.14631	-758.52686	-1113.58169	1203.81442	-432.99255	-1277.34959	1309.83256	-515.17994	-1109.52796	1196.49753	-692.17667	-1276.42492	1302.92394	-621.66502	-979.86006	1734.25820	-562.41777	-955.67623	1661.65206	-386.99150	-911.21961	1657.40602	-709.17676	-890.56919	1594.85790	-515.87523	-883.89253	1589.19928	-566.64463	-1037.52096	1437.22175	-253.38796	-1090.04685	1332.81231	-305.95941	-1072.90524	1354.62384	-220.98522	-967.44988	1228.67360	-210.10157	-899.49185	1135.58835	-222.64186	-929.15368	1127.67155	-190.77622	-958.54790	1427.02742	-835.99631	-1029.97189	1326.20032	-801.69652	-992.68805	1341.10629	-863.80414	-894.45156	1190.96135	-861.09183	-834.81057	1114.53064	-838.02533	-863.33041	1096.31790	-860.61865	-1220.28644	1161.03227	-440.18351	-1214.73402	1152.99279	-670.34433	-1209.31711	1164.67967	-468.05820	-1207.83390	1153.59868	-638.84276	
70	0.69000000	-1014.14815	769.70567	-469.90066	-1011.70003	685.13314	-455.63027	-1242.42294	406.96000	-477.58574	-1309.99636	356.36106	-525.49398	-1111.79598	346.47423	-431.92635	-1075.20642	369.23363	-491.73137	-997.87075	774.19497	-734.14060	-1016.42624	661.76824	-755.22563	-1236.80522	417.01419	-748.30133	-1313.39211	370.86261	-714.16402	-1097.68704	343.22358	-793.58437	-1071.47309	366.09692	-729.18288	-1072.84234	589.50269	-453.64674	-1073.53284	724.61528	-435.64032	-1142.58180	631.96374	-434.49166	-1085.63415	717.98267	-767.76496	-1150.17832	616.17667	-772.27267	-1086.89205	1067.79919	-398.08141	-1027.73988	979.64103	-422.63893	-1062.07152	924.90749	-400.84628	-1182.03781	1005.67519	-401.96181	-1112.84982	910.64354	-417.38552	-1081.26864	1084.24998	-745.35980	-1003.04654	969.60448	-742.20601	-1180.87299	1017.13829	-749.00866	-1094.34772	908.10172	-758.62738	-1108.33812	1203.52718	-431.53923	-1272.21487	1309.06140	-514.27078	-1103.99368	1195.96499	-691.38280	-1271.08452	1302.04702	-620.71376	-978.66722	1735.53416	-560.62219	-954.01949	1663.19090	-385.74543	-908.25528	1660.25495	-706.65377	-888.02306	1597.17913	-513.91896	-881.02136	1591.32200	-565.20568	-1021.55692	1436.24216	-251.09131	-1069.62425	1328.40815	-302.12101	-1051.34067	1351.59751	-217.66043	-936.59374	1233.87435	-210.47722	-862.17261	1145.80642	-225.78119	-890.19495	1135.97333	-192.91638	-943.97449	1429.22590	-833.95924	-1010.28832	1324.53452	-800.98927	-973.01435	1341.79046	-863.00329	-863.31501	1199.03687	-856.90016	-798.90049	1127.40452	-831.44845	-825.60399	1107.13233	-854.37045	-1214.89016	1160.45713	-439.10897	-1209.10187	1152.24895	-669.25802	-1204.10811	1163.96961	-466.83957	-1202.28958	1152.68629	-638.05186	
71	0.70000000	-1011.03894	768.09887	-469.82250	-1009.17717	683.59260	-455.76483	-1242.16902	406.86955	-477.10186	-1309.98307	356.61914	-525.20690	-1111.71189	346.27112	-431.70082	-1075.14818	368.87373	-491.68617	-992.01746	774.16089	-734.03355	-1011.92127	662.20790	-755.39043	-1235.04593	419.77757	-747.80632	-1312.06094	375.05697	-713.69862	-1097.45796	343.25387	-793.54892	-1071.06896	365.79595	-729.05537	-1070.83890	588.46866	-453.18574	-1070.88408	723.63528	-435.46583	-1140.06262	630.86163	-434.48593	-1080.43697	719.21151	-767.41879	-1146.39650	618.05845	-771.83866	-1081.59549	1066.44873	-397.31370	-1023.70050	977.32324	-422.13699	-1057.45683	921.66060	-402.26769	-1177.26814	1004.97147	-401.50449	-1109.33155	909.77680	-415.42918	-1074.93374	1084.52742	-743.80739	-996.49169	969.89555	-741.13544	-1174.44439	1017.50758	-748.73434	-1087.80263	908.59535	-758.86704	-1102.61526	1203.27255	-430.34861	-1266.71899	1308.49805	-513.28549	-1098.10026	1195.56443	-690.57993	-1265.40908	1301.33336	-619.76857	-977.52074	1737.12505	-558.69130	-952.31661	1665.16920	-384.45381	-905.33539	1663.62396	-704.09848	-885.36575	1599.94093	-511.87557	-878.09866	1593.86722	-563.56084	-1005.61723	1436.53725	-249.20981	-1049.97536	1324.28647	-297.79260	-1029.41770	1350.32136	-214.62588	-905.91947	1241.73809	-210.96825	-825.79273	1158.93391	-229.59254	-851.76906	1147.88431	-195.14417	-929.74785	1432.76678	-832.29016	-991.08027	1324.36842	-801.00848	-953.59111	1343.99041	-862.30092	-833.16272	1209.73377	-852.85719	-764.09962	1143.46987	-825.13289	-788.81849	1121.22495	-848.36759	-1209.06209	1159.98034	-438.09616	-1203.17013	1151.67987	-668.23913	-1198.45060	1163.50233	-465.80922	-1196.34218	1151.96658	-637.26250	
